<svg xmlns="http://www.w3.org/2000/svg" viewBox="0 0 64 64" fill="none" aria-hidden="true">
  <g stroke="#111827" stroke-width="2.75" stroke-linecap="square" stroke-linejoin="miter">
    <path d="M 9 50 L 55 50 M 9 50 L 9 62 M 55 50 L 55 62" />
    <path d="M 32 50 L 32 19" />
    <path d="M 24 50 L 24 45 L 15 36 L 15 29" />
    <path d="M 40 50 L 40 45 L 49 36 L 49 29" />
    <path d="M 16 50 L 16 43 L 5 33 L 5 31" />
    <path d="M 48 50 L 48 43 L 59 33 L 59 31" />
    <circle cx="32" cy="14.5" r="3.25" />
    <circle cx="15" cy="23.5" r="3" />
    <circle cx="49" cy="23.5" r="3" />
    <circle cx="5" cy="27" r="3" />
    <circle cx="59" cy="27" r="3" />
  </g>
</svg>
